<svg width="343" height="53" viewBox="0 0 343 53" fill="none" xmlns="http://www.w3.org/2000/svg">
<path fill-rule="evenodd" clip-rule="evenodd" d="M13.481 0.857422L26.962 13.9643L24.3839 16.616L13.481 6.01575L2.57814 16.616L0 13.9643L13.481 0.857422Z" fill="#D0EBEB"/>
<path fill-rule="evenodd" clip-rule="evenodd" d="M13.481 12.8379L26.962 25.9447L24.3839 28.5965L13.481 17.9962L2.57814 28.5965L0 25.9447L13.481 12.8379Z" fill="#B1DFDF"/>
<path fill-rule="evenodd" clip-rule="evenodd" d="M13.481 24.8184L26.962 37.9252L24.3839 40.5769L13.481 29.9767L2.57814 40.5769L0 37.9252L13.481 24.8184Z" fill="#7FCFCF"/>
<path fill-rule="evenodd" clip-rule="evenodd" d="M13.481 36.7988L26.962 49.9057L24.3839 52.5574L13.481 41.9572L2.57814 52.5574L0 49.9057L13.481 36.7988Z" fill="#57C5C7"/>
<path d="M343 16.8389L329.875 8.92188V13.3615H309.697V43.1202H316.65V20.3011H329.875V24.7483L343 16.8389Z" fill="#57C5C7"/>
<path d="M273.131 13.1934H278.592L291.399 32.8836V13.1934H297.088V43.1188H291.612L278.827 23.4817V43.1188H273.131V13.1934Z" fill="#57C5C7"/>
<path d="M245.53 18.013C242.758 18.013 240.44 18.9752 238.547 20.8995C236.668 22.8238 235.714 25.2709 235.714 28.2483C235.714 31.5514 236.903 34.1728 239.289 36.0971C241.129 37.6047 243.25 38.3548 245.628 38.3548C248.332 38.3548 250.643 37.3774 252.536 35.4228C254.437 33.4682 255.391 31.0666 255.391 28.2028C255.391 25.3391 254.437 22.945 252.521 20.9677C250.605 18.9979 248.272 18.0054 245.53 18.0054M245.591 12.437C249.825 12.437 253.452 13.9674 256.505 17.0357C259.55 20.0964 261.072 23.839 261.072 28.2407C261.072 32.6424 259.572 36.3016 256.573 39.3245C253.559 42.3549 249.915 43.8626 245.621 43.8626C241.326 43.8626 237.395 42.3095 234.434 39.2033C231.457 36.0971 229.98 32.4151 229.98 28.1346C229.98 25.2709 230.677 22.642 232.056 20.2404C233.434 17.8388 235.343 15.9372 237.751 14.528C240.175 13.1264 242.788 12.4219 245.583 12.4219" fill="#57C5C7"/>
<path d="M206.721 24.8908H208.509C210.319 24.8908 211.568 24.6559 212.243 24.1787C212.932 23.7014 213.265 22.9135 213.265 21.8073C213.265 21.1558 213.098 20.5876 212.765 20.1027C212.417 19.6179 211.97 19.2694 211.394 19.0648C210.834 18.8527 209.789 18.7466 208.274 18.7466H206.714V24.8908M201.025 13.1934H207.062C210.372 13.1934 212.727 13.4888 214.129 14.0798C215.522 14.6707 216.651 15.6556 217.507 17.0193C218.355 18.3905 218.779 20.0118 218.779 21.8831C218.779 23.7544 218.317 25.4893 217.378 26.8151C216.423 28.1334 215.007 29.1334 213.114 29.8153L220.195 43.1188H213.969L207.251 30.4441H206.729V43.1188H201.025V13.1934Z" fill="#57C5C7"/>
<path d="M173.242 13.1934H188.087V18.7466H178.9V24.1711H188.087V29.6486H178.9V43.1188H173.242V13.1934Z" fill="#57C5C7"/>
<path d="M141.576 13.1934H157.906V18.7618H147.226V24.1711H157.906V29.641H147.226V37.5201H157.906V43.1113H141.576V13.1934Z" fill="#57C5C7"/>
<path d="M115.856 24.8832H117.636C119.446 24.8832 120.696 24.6484 121.377 24.1711C122.059 23.7014 122.407 22.9059 122.407 21.8073C122.407 21.1558 122.233 20.5876 121.9 20.1027C121.559 19.6254 121.105 19.2769 120.537 19.0648C119.969 18.8527 118.931 18.7466 117.416 18.7466H115.856V24.8908M110.16 13.1934H116.189C119.491 13.1934 121.847 13.4888 123.248 14.0722C124.649 14.6631 125.77 15.6404 126.626 17.0117C127.482 18.383 127.906 20.0042 127.906 21.8755C127.906 23.8377 127.437 25.4893 126.49 26.8076C125.551 28.1334 124.134 29.1334 122.233 29.8077L129.315 43.1113H123.089L116.363 30.4441H115.848V43.1113H110.16V13.1934Z" fill="#57C5C7"/>
<path d="M83.9599 18.0115C81.1954 18.0115 78.8626 18.9737 76.9767 20.898C75.0907 22.8223 74.144 25.2694 74.144 28.2468C74.144 31.55 75.3331 34.1713 77.7113 36.0956C79.5594 37.6032 81.6726 38.3533 84.0584 38.3533C86.7624 38.3533 89.0573 37.376 90.9584 35.4213C92.8595 33.4667 93.8062 31.0651 93.8062 28.2089C93.8062 25.3527 92.8519 22.9511 90.9357 20.9738C89.027 18.9964 86.7018 18.0115 83.9524 18.0115M84.0281 12.4355C88.2544 12.4355 91.8976 13.9659 94.9423 17.0342C97.9871 20.095 99.5095 23.8375 99.5095 28.2468C99.5095 32.6561 98.0098 36.3002 95.0029 39.3306C92.0036 42.3534 88.3529 43.8687 84.066 43.8687C79.7791 43.8687 75.8481 42.3156 72.8715 39.2094C69.9025 36.1032 68.418 32.4212 68.418 28.1407C68.418 25.277 69.1072 22.6481 70.4933 20.254C71.8793 17.8524 73.7804 15.9508 76.2041 14.5493C78.6278 13.1477 81.2333 12.4431 84.0281 12.4431" fill="#57C5C7"/>
<path d="M43.1055 13.1934H57.9506V18.739H48.7557V24.1711H57.9506V29.641H48.7557V43.1113H43.1055V13.1934Z" fill="#57C5C7"/>
</svg>
